<?xml version="1.0" encoding="UTF-8"?>
<svg height="16px" viewBox="0 0 16 16" width="16px" xmlns="http://www.w3.org/2000/svg">
    <path d="m 2 4 h 12 v 9 h -12 z m 0 0" fill="none" stroke="#241f31" stroke-linecap="round" stroke-linejoin="round" stroke-width="2"/>
    <g fill="#241f31">
        <path d="m 3.488281 7.890625 l 1.609375 -0.953125 v -0.28125 l -1.609375 -0.984375 v 0.359375 l 1.34375 0.8125 v -0.09375 l -1.34375 0.8125 z m 1.914063 0.609375 h 2.09375 v -0.265625 h -2.09375 z m -2.273438 -4.402344"/>
        <path d="m 11.722656 11.25 c 0 0.277344 0.222656 0.5 0.5 0.5 s 0.5 -0.222656 0.5 -0.5 s -0.222656 -0.5 -0.5 -0.5 s -0.5 0.222656 -0.5 0.5 z m 0 0"/>
        <path d="m 12.722656 8.75 v 0.25 c 0 0.136719 -0.113281 0.25 -0.25 0.25 c -1.242187 0 -2.25 1.007812 -2.25 2.25 c 0 0.136719 -0.113281 0.25 -0.25 0.25 h -0.25 v -0.25 c 0 -1.519531 1.230469 -2.75 2.75 -2.75 z m 0 1 v 0.25 c 0 0.136719 -0.113281 0.25 -0.25 0.25 c -0.691406 0 -1.25 0.558594 -1.25 1.25 c 0 0.136719 -0.113281 0.25 -0.25 0.25 h -0.25 v -0.25 c 0 -0.96875 0.785156 -1.75 1.75 -1.75 z m 0 0"/>
    </g>
</svg>
