<?xml version="1.0" encoding="UTF-8"?>
<svg height="128px" viewBox="0 0 128 128" width="128px" xmlns="http://www.w3.org/2000/svg" xmlns:xlink="http://www.w3.org/1999/xlink">
    <linearGradient id="a" gradientUnits="userSpaceOnUse" x1="8.0000455" x2="120.0000455" y1="116.000067" y2="116.000067">
        <stop offset="0" stop-color="#77767b"/>
        <stop offset="0.0357143" stop-color="#c0bfbc"/>
        <stop offset="0.0713653" stop-color="#9a9996"/>
        <stop offset="0.928571" stop-color="#9a9996"/>
        <stop offset="0.964286" stop-color="#c0bfbc"/>
        <stop offset="1" stop-color="#77767b"/>
    </linearGradient>
    <path d="m 16 40 h 96 c 4.417969 0 8 3.582031 8 8 v 60 c 0 4.417969 -3.582031 8 -8 8 h -96 c -4.417969 0 -8 -3.582031 -8 -8 v -60 c 0 -4.417969 3.582031 -8 8 -8 z m 0 0" fill="url(#a)"/>
    <path d="m 16 28 h 96 c 4.417969 0 8 3.582031 8 8 v 68 c 0 4.417969 -3.582031 8 -8 8 h -96 c -4.417969 0 -8 -3.582031 -8 -8 v -68 c 0 -4.417969 3.582031 -8 8 -8 z m 0 0" fill="#3d3846"/>
    <path d="m 23.320312 46.992188 v -3.25 l 16.6875 6.03125 v 3.0625 l -16.6875 6.03125 v -3.25 l 12.5625 -4.296876 z m 32.859376 16.484374 v 2.484376 h -13.34375 v -2.484376 z m -35.6875 -28.566406" fill="#ffffff"/>
    <g fill="#f6f5f4">
        <path d="m 96.839844 99.476562 c 0 2.945313 2.386718 5.332032 5.332031 5.332032 s 5.332031 -2.386719 5.332031 -5.332032 c 0 -2.945312 -2.386718 -5.335937 -5.332031 -5.335937 s -5.332031 2.390625 -5.332031 5.335937 z m 0 0"/>
        <path d="m 107.503906 72.808594 v 2.667968 c 0 1.464844 -1.207031 2.664063 -2.664062 2.664063 c -13.257813 0 -24 10.746094 -24 24 c 0 1.46875 -1.210938 2.667969 -2.667969 2.667969 h -2.667969 v -2.667969 c 0 -16.199219 13.132813 -29.332031 29.335938 -29.332031 z m 0 10.667968 v 2.664063 c 0 1.46875 -1.207031 2.667969 -2.664062 2.667969 c -7.367188 0 -13.335938 5.96875 -13.335938 13.332031 c 0 1.46875 -1.207031 2.667969 -2.664062 2.667969 h -2.667969 v -2.667969 c 0 -10.308594 8.355469 -18.664063 18.667969 -18.664063 z m 0 0"/>
    </g>
</svg>
